# Blender 4.1.1
# www.blender.org

o Cube
mtllib base.mtl
v 43.899059 0.364257 18.858757
v 43.899059 -0.364257 18.858757
v -43.899059 0.364257 -18.858757
v -43.899059 -0.364257 -18.858757
v -43.899059 0.364257 18.858757
v -43.899059 -0.364257 18.858757
v 43.899059 0.364257 -18.858757
v 43.899059 -0.364257 -18.858757
vn -0.0000 -0.0000 -1.0000
vn -0.0000 -1.0000 -0.0000
vn -1.0000 -0.0000 -0.0000
vn -0.0000 -0.0000 1.0000
vn 1.0000 -0.0000 -0.0000
vn -0.0000 1.0000 -0.0000
vt 0.625000 0.000000
vt 0.375000 0.250000
vt 0.375000 0.000000
vt 0.625000 0.250000
vt 0.375000 0.500000
vt 0.625000 0.500000
vt 0.375000 0.750000
vt 0.625000 0.750000
vt 0.375000 1.000000
vt 0.125000 0.750000
vt 0.125000 0.500000
vt 0.875000 0.500000
vt 0.625000 1.000000
vt 0.875000 0.750000
s 0
usemtl concrete
f 5/1/1 2/2/1 6/3/1
f 7/4/2 5/5/2 3/2/2
f 1/6/3 8/7/3 2/5/3
f 7/8/4 4/9/4 8/7/4
f 3/5/5 6/10/5 4/11/5
f 4/12/6 2/8/6 8/6/6
f 5/1/1 1/4/1 2/2/1
f 7/4/2 1/6/2 5/5/2
f 1/6/3 7/8/3 8/7/3
f 7/8/4 3/13/4 4/9/4
f 3/5/5 5/7/5 6/10/5
f 4/12/6 6/14/6 2/8/6
